<svg width="167" height="168" viewBox="0 0 167 168" fill="none" xmlns="http://www.w3.org/2000/svg">
<path d="M89.7921 17.4004C87.0981 16.4752 83.912 15.9349 82.85 16.7232C82.38 17.071 82.8019 18.4328 82.9425 18.8399C84.5744 23.573 94.1216 25.4233 100.046 25.971C96.5751 24.0022 92.5008 21.1269 89.7921 17.4004Z" fill="white"/>
<path d="M105.828 19.891C105.476 18.0259 104.81 15.7019 103.648 12.8524C103.19 11.7311 102.646 10.5211 102.02 9.23324C101.88 8.9446 101.746 8.65965 101.595 8.3636C99.5667 4.32624 97.2724 2.11328 95.1224 2.11328C95.0965 2.11328 95.0706 2.11328 95.0447 2.11328C93.3721 2.15769 92.0103 3.56022 91.5774 4.54088C90.3525 7.32743 90.3007 9.95856 91.422 12.586C91.6662 13.1596 91.9733 13.711 92.3064 14.2476C92.9392 15.2689 93.7089 16.2311 94.5748 17.1303C96.8691 19.5024 99.7814 21.4267 102.312 22.8293C103.049 23.2363 103.752 23.6027 104.4 23.9209C105.029 24.2318 105.61 24.5019 106.105 24.724C106.168 24.2281 106.202 23.5953 106.176 22.833C106.046 21.9485 105.928 20.9568 105.832 19.8984L105.828 19.891Z" fill="white"/>
<path d="M114.823 10.5432C115.037 7.57164 114.216 1.39533 112.21 0.181535C112.11 0.122326 111.914 0.00390625 111.566 0.00390625C111.174 0.00390625 110.586 0.15193 109.723 0.707021C107.618 2.05034 106.489 5.05523 105.96 8.5671C108.188 13.3446 109.287 17.1118 109.746 20.0205C111.229 17.0637 113.039 13.6036 114.823 10.5506V10.5432Z" fill="white"/>
<path d="M129.092 4.56284C128.482 3.39345 127.878 3.32314 127.649 3.29723C127.582 3.28983 127.512 3.28613 127.438 3.28613C125.806 3.28613 123.249 5.25485 121.954 6.761C120.958 7.91929 119.782 9.70298 118.557 11.7605C117.439 13.6404 116.285 15.7424 115.193 17.8147C114.538 19.0581 113.909 20.2867 113.328 21.4487C113.269 21.5634 113.213 21.6781 113.154 21.7929C112.61 22.8808 112.111 23.8948 111.67 24.794C111.644 24.8458 111.615 24.9051 111.589 24.9569C111.733 24.9014 111.896 24.8347 112.048 24.7755C112.059 24.7718 112.074 24.7644 112.085 24.7607C112.61 24.5498 113.184 24.3019 113.805 24.0058C115.752 23.0807 118.172 21.704 121.055 19.6317C121.373 19.4023 121.68 19.1765 121.976 18.9508C124.189 17.2818 125.817 15.7498 127.009 14.3546C131.46 9.14049 129.751 5.84695 129.085 4.56284H129.092Z" fill="white"/>
<path d="M136.342 15.6236C136.179 15.5718 135.979 15.5459 135.75 15.5459C134.443 15.5459 132.083 16.3452 129.303 17.5479C127.72 19.2724 125.721 21.008 123.301 22.7436C122.236 23.5096 121.233 24.1794 120.278 24.7863C120.074 24.9158 119.871 25.0416 119.675 25.1638C120.422 25.0787 121.133 24.9861 121.814 24.8899C132.456 23.3764 135.465 20.5491 136.308 19.1429C136.949 18.0771 136.96 16.9225 136.342 15.6199V15.6236Z" fill="white"/>
<path d="M131.431 32.8242C132.216 32.6059 132.471 32.332 132.493 32.2728C132.501 32.2247 132.456 31.9287 132.057 31.4217C130.828 29.8674 127.59 28.9571 123.734 28.4834C121.544 28.8387 119.142 29.1199 116.533 29.3234C123.283 32.9093 128.956 33.5088 131.431 32.8242Z" fill="white"/>
<path d="M106.175 22.8252C106.146 22.0111 106.046 21.0378 105.831 19.8906C105.931 20.9527 106.049 21.9445 106.175 22.8252Z" fill="white"/>
<path d="M130.501 36.4283C130.057 36.4727 129.595 36.5023 129.11 36.5023C128.4 36.5023 127.641 36.4505 126.849 36.3542C135.408 44.4216 142.213 54.7944 146.513 66.6289L150.44 62.4657L153.148 65.0191L149.788 68.5828L152.338 68.6901L152.183 72.4092L148.338 72.2501C150.484 79.766 151.646 87.7815 151.646 96.1005C151.646 123.078 139.445 146.876 120.973 160.817C147.72 148.719 166.063 124.262 166.063 96.1005C166.063 71.4286 151.979 49.5987 130.501 36.432V36.4283Z" fill="white"/>
<path d="M14.7655 103.135L8.27115 103.405L8.11573 99.6864L10.6654 99.5791L7.30532 96.0154L10.0141 93.462L14.5102 98.2284C14.4917 97.5178 14.4806 96.8073 14.4806 96.0931C14.4806 69.1157 26.6848 45.3134 45.1576 31.377C18.4068 43.4742 0.0634766 67.9315 0.0634766 96.0931C0.0634766 124.255 18.4068 148.712 45.1576 160.809C28.3093 148.098 16.6824 127.182 14.7655 103.135Z" fill="white"/>
<path d="M33.8628 96.094C33.8628 86.7648 34.9174 77.8204 36.8379 69.5274L32.2974 69.7161L32.142 65.997L34.6917 65.8897L31.3316 62.326L34.0404 59.7726L38.2145 64.2022C42.4516 49.422 49.538 37.0916 58.3637 28.9688C35.4725 40.0188 19.3643 65.9452 19.3643 96.0903C19.3643 126.235 35.4688 152.162 58.36 163.212C43.7245 149.738 33.8628 124.707 33.8628 96.0903V96.094Z" fill="white"/>
<path d="M132.263 96.0943C132.263 98.4035 132.193 100.69 132.067 102.948L135.564 99.2398L138.272 101.793L134.912 105.357L137.462 105.464L137.307 109.183L131.586 108.946C129.132 132.097 120.162 151.807 107.766 163.22C130.657 152.166 146.761 126.243 146.761 96.098C146.761 66.5783 131.316 41.1181 109.179 29.6943C108.965 29.7017 108.754 29.7091 108.535 29.7128C122.741 43.3459 132.263 67.9882 132.263 96.098V96.0943Z" fill="white"/>
<path d="M108.158 53.6365L112.006 49.5547L114.715 52.1081L111.355 55.6718L113.905 55.7791L113.749 59.4982L109.438 59.3169C111.644 70.2004 112.887 82.6973 112.887 96.0935C112.887 126.801 106.363 152.798 96.6494 165.458C114.508 156.017 127.467 128.5 127.467 96.0935C127.467 66.8032 116.876 41.5059 101.652 29.9452C100.872 29.9045 99.8688 29.8342 98.718 29.7195C102.526 35.7293 105.753 43.9039 108.158 53.6365Z" fill="white"/>
<path d="M48.9652 125.576L48.8098 121.857L51.3594 121.75L47.9994 118.186L50.7082 115.633L54.6085 119.77C53.7204 112.332 53.243 104.387 53.243 96.0936C53.243 65.386 59.7669 39.3893 69.4807 26.7295C51.6222 36.1697 38.6631 63.6874 38.6631 96.0936C38.6631 128.496 51.6222 156.017 69.4807 165.458C63.053 157.083 58.0277 142.866 55.356 125.31L48.9615 125.576H48.9652Z" fill="white"/>
<path d="M72.623 96.094C72.623 94.5619 72.6304 93.0373 72.6378 91.52L67.4016 91.7384L67.2462 88.0193L69.7959 87.9119L66.4358 84.3483L69.1446 81.7949L72.7007 85.5695C72.9413 69.3719 73.7406 54.403 75.0135 42.624C75.9461 33.9757 76.9711 28.4174 78.0331 24.8389C67.6052 31.5592 57.958 58.4959 57.958 96.0903C57.958 133.685 67.6052 160.621 78.0331 167.345C76.9748 163.771 75.9461 158.209 75.0135 149.56C73.4704 135.265 72.623 116.277 72.623 96.0903V96.094Z" fill="white"/>
<path d="M91.1104 42.6273C92.6535 56.9227 93.5009 75.9105 93.5009 96.0973C93.5009 108.261 93.1901 119.981 92.6091 130.509L95.9877 126.927L98.6964 129.48L95.3364 133.044L97.886 133.151L97.7306 136.871L92.228 136.641C91.9097 141.259 91.536 145.6 91.1104 149.567C90.1779 158.216 89.1529 163.778 88.0908 167.352C98.5188 160.632 108.166 133.695 108.166 96.0973C108.166 63.5912 100.954 39.0636 92.2576 28.6723C91.1141 28.4096 89.9596 28.095 88.8309 27.7139C89.6265 31.2109 90.3962 36.0106 91.1104 42.6273Z" fill="white"/>
<path d="M77.2588 96.094C77.2588 135.827 80.419 161.695 83.0611 167.997C85.7033 161.695 88.8635 135.827 88.8635 96.094C88.8635 58.0481 85.966 32.7286 83.4016 25.1128C83.2166 24.9869 83.0389 24.85 82.8613 24.7168C80.2636 31.822 77.2588 57.3672 77.2588 96.094Z" fill="white"/>
</svg>
